<?xml version="1.0" encoding="utf-8"?>
<!-- Generator: Adobe Illustrator 19.2.1, SVG Export Plug-In . SVG Version: 6.00 Build 0)  -->
<svg version="1.1" id="layer" xmlns="http://www.w3.org/2000/svg" xmlns:xlink="http://www.w3.org/1999/xlink" x="0px" y="0px"
	 viewBox="0 0 652 652" style="enable-background:new 0 0 652 652;" xml:space="preserve">
<style type="text/css">
	.st0{fill:#003B70;}
	.st1{fill:#D9272E;}
</style>
<g>
	<path class="st0" d="M71.9,406.1c-4.6-3.7-11.5-2.3-15.1-1.4c-4.2,1-7.7,2.3-11.4,3.8c-0.2,7.8-0.4,12.8-0.5,18.9
		c-0.1,7.3,0,14.5,0.1,21.6c3-0.4,6-0.9,11.6-2.2c12.5-2.9,20.5-11,20.7-25.8C77.2,413.3,74.7,408.4,71.9,406.1 M93,443.9
		c-3,3.7-10.5,12.5-35.8,18.3c-4.2,1-8.4,1.7-12.6,2.6c-0.1,6.4-0.4,21.4,0.2,26.7c0.5,5.5,1.7,6.8,3.5,9c-5.4,1-10.9,2.1-16.3,3.5
		c-5.4,1.4-10.2,3-16.3,5c1.7-3.9,3.4-8.3,3.9-18.9c0.3-5.5,0.4-10.7,0.6-30.1c0.1-11.8,0.4-38.7-1.4-48.6
		c-1.1-6.2-2.6-8.1-4.1-10.2c5.4-0.6,25.6-6.2,45.8-11.4c13.5-3.6,26.9-4.5,34.3,1.9c8.4,7.5,8.4,19,8.4,23.8
		C103.1,419.2,103,432,93,443.9"/>
	<path class="st0" d="M116.4,410.8c-1.7-3.8-3.4-5.7-5.2-6.6c16.6-2.8,19.8-2.7,34.4-7.9c-1.3,3.1-2.5,6-3.1,11.1
		c-1,7-1.1,23.3-1.2,30.9c-0.1,6.4-0.2,22.1,0,29.1c0.2,10.9,1.1,12.5,2.7,15.5c-3.7,0.1-8.1,0.2-14.9,1.3c-5,0.8-10.3,2.2-15,3.7
		c1.7-5.3,2.3-8,3-16.1c0.7-10.4,0.8-17.8,1-35.9C118.2,421.2,117.9,414.1,116.4,410.8"/>
	<path class="st0" d="M183.6,465.4c0.5,6.6,1.3,8.6,2.5,11.5c-4.3-0.1-9,0-16.3,0.9c-7,0.9-9.6,1.7-13.4,2.9
		c2.7-14.9,2.8-20.5,3.2-60.7c0.1-10.9,0-20.3-0.8-29.4c-0.9-12-2.6-14.2-4.8-17c13.2-2.3,16.6-3.2,30.2-9.2
		c-0.7,11.3-1.1,16-1.4,48.6C182.5,436.5,182.5,451.5,183.6,465.4"/>
	<path class="st0" d="M233.7,396.3c-8.4,0.6-12.6,7-12.7,16.9c-0.1,9.9,3.5,16.3,12.4,15.7c8.9-0.6,12-8.5,12.1-16.3
		C245.5,402.2,242.5,395.7,233.7,396.3 M258.6,484.8c0.1-7.9-7.3-8.8-11.7-8.9c-3.5-0.3-23.2-0.1-27.8,0c-3.1,3-7.1,7.1-7.2,13.2
		c-0.1,9.4,10.3,12.2,22,11.4C246.8,499.6,258.5,494.1,258.6,484.8 M258,390c9.6-0.9,11.9-1.3,21.3-4c-0.3,2.4-0.5,4.6-0.5,6.8
		c0,2,0.1,4.1,0.4,6c-5.8-0.4-7.5-0.4-13.3-0.5c1.9,4.2,3.6,7.7,3.5,14.1c-0.2,19.7-18.3,26.5-36.8,27.9c-5.2,0.4-8.1,0.3-12.2,0
		c-2.8,1.9-7.2,4.9-7.2,8.2c0,6,7,5.1,32.5,5c14.4,0,30.9,0.9,30.7,21.5c-0.2,19.3-18.4,34.6-47.5,36.4c-12.8,0.8-19.8,0.3-25.2-1.3
		c-6.8-1.9-12.7-6.4-12.7-13.3c0.1-11.6,16.2-19.5,20.6-21.6c-3.8-0.4-9.4-1.1-13.5-4.7c-3-2.6-4.7-6.3-4.6-10.3
		c0.1-12.2,15.3-20.1,20.5-21.6c-2.3-0.3-17.5-3.5-17.3-21.9c0.2-18.9,16-28.9,37.4-30.4C248.6,385.4,255.8,388.5,258,390"/>
	<path class="st0" d="M321.5,410c-6.8,6.1-6.9,18.1-7,23.4c0,2.3-0.1,21.5,0.7,27.3c0.7,5.2,2.2,6.8,4.4,9c-5.8-0.4-11.3-1-17-0.9
		c-4.9,0-9.6,0.5-14.5,1.1c1.3-4.1,2.2-6.7,2.7-11.4c0.7-7,0.7-24,0.8-36.7c0.3-28.5-3.7-31.6-5.9-34.1c14.8-0.3,18.3-0.1,31.3-3.6
		c-1,9.9-1.1,11.8-1.3,22.8c1.4-3.3,2.8-6.5,8.4-11.9c8.8-8.5,16.2-9.4,22.8-9.9c-2.4,9.9-2.9,12-4.2,23.2c-3-1.2-6.1-2.3-9.9-2.4
		C327.2,405.8,323.5,408.1,321.5,410"/>
	<path class="st0" d="M356.1,394.3c-1.3-4-3-5.4-4.8-6.7c17,0.7,19.6,0.7,34.3-1.3c-1.3,2.8-2.5,5.4-3.2,10.4
		c-1,6.8-1.2,23.1-1.2,30.7c-0.1,6.4-0.2,22.1,0,29.1c0.2,10.9,1.1,12.8,2.7,16.1c-3.7-0.7-8.1-1.6-15-2c-5-0.3-10.4-0.1-15.2,0.3
		c1.7-4.9,2.4-7.5,3.1-15.5c0.7-10.3,0.8-17.7,1-35.7C358,405.1,357.8,399,356.1,394.3"/>
	<path class="st0" d="M464,397.4c10.6,5.7,11.4,13.9,11.8,17.5c1.5-2.6,2.9-4.9,6.3-7.6c7.2-5.7,14.6-6.7,22-5.3
		c4.8,0.9,8.4,2.4,11,3.8c13.1,7.2,12.9,19.8,12.9,25.2c-0.1,12-0.2,24.1-0.3,36.1c-0.2,20.9,1,22,3.5,25.1
		c-5.6-1.7-11-3.4-16.4-4.5c-4.8-1-9.8-1.5-14.2-1.7c2.8-3.7,3.5-5.3,3.9-11.7c0.4-5.8,0.4-10.4,0.5-16.3c0-4.1,0-17.5-0.1-23
		c-0.1-5.2-0.3-15.3-11.8-17.3c-2.4-0.4-7.6-1-11.7,2.4c-5.1,4.2-5.1,10.4-5.2,19.5c0,2.6-0.2,8.6-0.3,18.8
		c-0.2,20.3,1.3,21.6,3.5,24.9c-5.9-1.4-11.4-2.9-17-3.7c-4.9-0.7-9.6-0.9-14.1-0.9c1.9-2.3,4.3-2.9,4.5-27.3
		c0.2-17,0.7-28.4-0.6-32.7c-2.1-7.1-7.7-8.2-10.3-8.5c-4.4-0.6-9.6,0.5-12.7,3.2c-4.6,4-5.1,11.4-5.3,29.5
		c-0.3,29.6,0.8,29.8,2.7,33.4c-5.2-1-10.3-2-15.5-2.5c-4.9-0.5-9.8-0.4-14.7-0.4c3.1-6.7,3.9-8.6,4.4-57.4
		c0.2-19.7-3.6-22.2-6.9-25.1c2.7,0.4,5.5,0.7,8.1,1c9.9,0.9,16.7-0.4,23.7-1.9c-0.8,7.3-1.2,9.9-1.4,18.5c1.6-3,3-5.4,6.2-8.1
		c5.5-4.7,14-7,23.1-5.8C457.3,394.7,460.8,395.7,464,397.4"/>
	<path class="st0" d="M535.3,420.4c8-9.7,13.2-19.7,12.1-32.5c7.9,1.9,13.7,2.8,18.5,3.6c-4.8,13.6-10.1,20.7-22.7,30.3
		C540.5,421.3,538.9,421,535.3,420.4"/>
	<path class="st0" d="M566.2,417.9c6.2-1.2,14.7,0.2,20.5,1.8c8.2,2.3,14.4,5.6,20.9,9.1c-2.6,6.3-3.5,10.2-3.3,17.2
		c-5-6.5-12-10.8-19.1-12.8c-9.8-2.7-9.9,4-9.9,4.5c0,4.7,4.4,8.8,13,15.8c9.6,7.9,20.7,17,20.5,32.3c-0.2,14.5-11.5,23.1-32.4,17.5
		c-11.8-3.1-20.1-7.2-28.7-11.4c2.6-6.9,3.1-8.6,4.7-16.8c6.4,5.4,12.7,10.4,21.2,12.7c7.2,1.9,11.8-0.6,11.9-5.2
		c0.1-7.6-11.1-14.2-14.8-17c-8.8-6.6-19-15.8-18.9-29.2C551.9,427.9,556.2,419.9,566.2,417.9"/>
	<path class="st0" d="M140.4,380.9c0,7.3-5.8,13.2-13,13.2c-7.2,0-13-5.9-13-13.2c0-7.3,5.8-13.2,13-13.2
		C134.6,367.7,140.4,373.6,140.4,380.9"/>
	<path class="st0" d="M382.4,367.7c0,7.3-5.8,13.2-13,13.2c-7.2,0-13-5.9-13-13.2c0-7.3,5.8-13.2,13-13.2
		C376.6,354.5,382.4,360.4,382.4,367.7"/>
	<path class="st1" d="M560.1,355.9c-76-27.4-155.3-41.7-234.9-43.2c19.5-34.2,20.7-61.2,13.2-83.6c-23.8-71.3-84.5-61.9-101-47
		c19-6.5,32.4-2,34.3-1.3c-26.5,2.4-53.3,20.9-51.7,57c15.1-25.8,69.8-40.9,95.6,7.8c9.4,17.7,10.6,41.3,0,67
		c-85.2-0.4-170.4,14-251.7,43.3c0.3,2.5,0.2,4.3,0,6.5c139.2-50.1,359.4-49.2,496.2,0C560,359.7,560,358.4,560.1,355.9"/>
	<path class="st1" d="M304.2,171.8c6.4-4.6,6.7-4.8,13.3-9.5c-3.7,6.3-3.4,13.4-0.9,17.2l13.8-27.5c-6.7-3.7-22.5-6-34.6,7.3
		c6-0.7,11.6-1.4,16.8-2C305.7,161.7,304.6,167.8,304.2,171.8"/>
	<path class="st1" d="M352.3,269.1c38.8-55.9,30.9-88.9,3.1-104.6c2.7-8.5,1.5-16.3,1.5-16.3l-13.1,13.7l-4.6-19.9l-11.2,22.3
		C328.1,164.2,337.1,198.8,352.3,269.1"/>
	<path class="st0" d="M623.2,442.3h2.4c2,0,3.8-0.1,3.8-2.4c0-1.9-1.7-2.2-3.2-2.2h-3V442.3z M620.9,435.8h5.6
		c3.5,0,5.1,1.4,5.1,4.2c0,2.6-1.7,3.7-3.8,4l4.2,6.4h-2.4l-4-6.3h-2.4v6.3h-2.3V435.8z M625.8,453.8c5.8,0,10.3-4.6,10.3-10.7
		c0-6-4.5-10.6-10.3-10.6c-5.8,0-10.3,4.6-10.3,10.6C615.5,449.2,620,453.8,625.8,453.8 M625.8,430.6c6.8,0,12.5,5.4,12.5,12.4
		c0,7.2-5.7,12.6-12.5,12.6c-6.8,0-12.6-5.4-12.6-12.6C613.2,436,619,430.6,625.8,430.6"/>
</g>
</svg>
